<?xml version="1.0" encoding="iso-8859-1"?>
<!-- Generator: Adobe Illustrator 16.0.0, SVG Export Plug-In . SVG Version: 6.00 Build 0)  -->
<!DOCTYPE svg PUBLIC "-//W3C//DTD SVG 1.1//EN" "http://www.w3.org/Graphics/SVG/1.1/DTD/svg11.dtd">
<svg version="1.1" id="Layer_1" xmlns="http://www.w3.org/2000/svg" xmlns:xlink="http://www.w3.org/1999/xlink" x="0px" y="0px"
	 width="464.977px" height="635.065px" viewBox="0 0 464.977 635.065" style="enable-background:new 0 0 464.977 635.065;"
	 xml:space="preserve">
<g>
	<g>
		<path style="fill:#FEFEFE;" d="M-13,238.78c0-127.328,0.089-254.656-0.207-381.983c-0.018-8.225,1.741-10.254,10.151-10.238
			c161.933,0.295,323.866,0.268,485.798,0.065c7.603-0.009,10.554,0.783,10.542,9.836c-0.324,254.656-0.305,509.312-0.051,763.967
			c0.008,7.833-1.443,9.598-9.489,9.583c-162.376-0.306-324.753-0.333-487.127,0.045c-9.22,0.021-9.77-3.164-9.758-10.622
			C-12.944,492.548-13,365.664-13,238.78z M83.053,535.33c5.764,1.626,9.283-0.761,12.53-2.562
			c21.165-11.74,40.277-16.447,54.44,10.558c4.498,8.577,8.36,5.947,10.566-3.33c7.291-30.654,15.709-61.038,23.405-91.6
			c6.458-25.639,12.561-51.368,18.679-77.092c0.748-3.146,1.161-6.56,5.017-6.572c2.741-0.009,2.911,2.956,2.835,5.134
			c-0.75,21.599,2.54,43.284-3.362,64.767c-11.332,41.241-21.925,82.685-32.707,124.076c-0.762,2.923-0.996,6.138-0.707,9.143
			c0.368,3.842,3.197,7.029,6.586,7.572c4.848,0.779,5.671-4.557,5.684-7.331c0.043-9.991,4.26-18.924,6.221-28.392
			c5.059-24.417,10.895-48.674,16.421-72.994c4.745,45.522,7.323,90.784,10.143,136.031c0.262,4.206-2.812,11.835,4.33,11.474
			c5.48-0.276,8.854-6.309,8.314-13.164c-2.598-32.985-5.308-65.968-7.307-98.992c-2.297-37.963-2.813-76.063-6.195-113.918
			c-2.017-22.587-0.14-45.619-6.219-69.024c-6.12,3.153-12.102,5.263-16.917,8.91c-11.485,8.699-18.413,4.801-25.106-6.378
			c-3.951-6.599-8.208-13.483-14.785-18.279c-9.417-6.867-17.719-4.429-19.242,6.726c-4.727,34.63-15.363,67.872-23.168,101.772
			C103.041,452.99,92.95,493.975,83.053,535.33z M326.315,595.393c-5.951-23.462-4.007-44.65-5.747-65.699
			c-4.226-51.081-5.989-102.363-8.922-153.555c-1.062-18.517-2.396-37.024-4.131-55.488c-0.415-4.408,0.646-10.631-5.668-12.268
			c-6.025-1.563-8.124,3.952-11.348,7.403c-6.954,7.442-14.15,14.657-21.087,22.113c-4.512,4.85-8.389,5.034-13.49,0.346
			c-6.841-6.287-13.836-12.683-24.656-16.869c5.273,91.814,10.451,181.969,15.763,274.443c11.191-8.466,20.514-14.425,28.426-21.88
			c5.49-5.175,8.884-4.494,14.515-0.684C300.824,580.601,312.338,586.97,326.315,595.393z M333.532,322.485
			c4.355-5.235,2.517-6.629-3.011-7.361c-7.564-1.003-5.169,4.352-5.204,7.599c-0.35,32.328,3.082,64.459,5.064,96.675
			c3.366,54.743,5.745,109.546,8.676,164.314c0.33,6.159,1.504,12.276,2.365,18.401c0.401,2.839,1.882,5.459,4.885,5.216
			c3.71-0.3,2.949-3.82,2.897-6.271c-0.356-16.695-0.448-33.41-1.366-50.076c-1.966-35.64-4.415-71.253-6.601-106.881
			c-1.794-29.252-3.504-58.508-5.228-87.765C335.339,344.926,337.402,333.354,333.532,322.485z M121.515,302.232
			c0.518-2.603-0.116-4.381-2.989-4.745c-5.541-0.702-6.576,3.424-7.5,7.341c-7.654,32.462-15.363,64.913-22.806,97.423
			c-5.192,22.683-9.796,45.499-15.021,68.172c-5.322,23.088-11.147,46.059-16.564,69.125c-0.662,2.818-1.306,7.013,3.31,7.034
			c3.124,0.015,7.205-0.585,7.348-5.509c0.09-3.061-0.148-6.224,0.536-9.16c12.516-53.78,25.158-107.529,37.75-161.291
			C110.917,347.831,116.205,325.029,121.515,302.232z"/>
		<path style="fill-rule:evenodd;clip-rule:evenodd;fill:#99CCEE;" d="M83.053,535.33c9.896-41.355,19.988-82.34,29.458-123.467
			c7.805-33.9,18.441-67.143,23.168-101.772c1.523-11.155,9.825-13.593,19.242-6.726c6.577,4.796,10.834,11.681,14.785,18.279
			c6.693,11.179,13.621,15.077,25.106,6.378c4.815-3.647,10.797-5.757,16.917-8.91c6.079,23.405,4.202,46.438,6.219,69.024
			c3.381,37.854,3.897,75.955,6.195,113.918c1.999,33.024,4.709,66.007,7.307,98.992c0.539,6.855-2.834,12.888-8.314,13.164
			c-7.142,0.361-4.068-7.268-4.33-11.474c-2.82-45.247-5.398-90.509-10.143-136.031c-5.526,24.32-11.362,48.577-16.421,72.994
			c-1.961,9.468-6.178,18.4-6.221,28.392c-0.013,2.774-0.836,8.11-5.684,7.331c-3.389-0.543-6.219-3.73-6.586-7.572
			c-0.289-3.005-0.055-6.22,0.707-9.143c10.782-41.392,21.375-82.835,32.707-124.076c5.901-21.482,2.611-43.168,3.362-64.767
			c0.076-2.178-0.094-5.143-2.835-5.134c-3.856,0.013-4.269,3.427-5.017,6.572c-6.118,25.724-12.221,51.453-18.679,77.092
			c-7.696,30.562-16.115,60.945-23.405,91.6c-2.206,9.277-6.068,11.907-10.566,3.33c-14.163-27.005-33.275-22.298-54.44-10.558
			C92.336,534.569,88.817,536.956,83.053,535.33z"/>
		<path style="fill-rule:evenodd;clip-rule:evenodd;fill:#99CCEE;" d="M326.315,595.393c-13.977-8.423-25.491-14.792-36.346-22.137
			c-5.631-3.811-9.024-4.491-14.515,0.684c-7.912,7.455-17.234,13.414-28.426,21.88c-5.312-92.475-10.489-182.629-15.763-274.443
			c10.82,4.187,17.815,10.582,24.656,16.869c5.102,4.688,8.979,4.504,13.49-0.346c6.937-7.456,14.133-14.671,21.087-22.113
			c3.224-3.451,5.322-8.967,11.348-7.403c6.313,1.637,5.253,7.859,5.668,12.268c1.735,18.464,3.069,36.972,4.131,55.488
			c2.933,51.191,4.696,102.474,8.922,153.555C322.308,550.742,320.364,571.931,326.315,595.393z"/>
		<path style="fill-rule:evenodd;clip-rule:evenodd;fill:#99CCEE;" d="M333.532,322.485c3.87,10.869,1.808,22.44,2.479,33.851
			c1.724,29.257,3.434,58.513,5.228,87.765c2.186,35.628,4.635,71.241,6.601,106.881c0.918,16.666,1.01,33.381,1.366,50.076
			c0.052,2.451,0.812,5.972-2.897,6.271c-3.003,0.243-4.483-2.377-4.885-5.216c-0.861-6.125-2.035-12.242-2.365-18.401
			c-2.931-54.769-5.31-109.571-8.676-164.314c-1.982-32.216-5.414-64.347-5.064-96.675c0.035-3.247-2.36-8.602,5.204-7.599
			C336.048,315.856,337.887,317.25,333.532,322.485z"/>
		<path style="fill-rule:evenodd;clip-rule:evenodd;fill:#99CCEE;" d="M121.515,302.232c-5.31,22.797-10.598,45.599-15.936,68.39
			c-12.592,53.762-25.235,107.511-37.75,161.291c-0.684,2.937-0.446,6.1-0.536,9.16c-0.143,4.924-4.224,5.523-7.348,5.509
			c-4.615-0.021-3.971-4.216-3.31-7.034c5.417-23.066,11.242-46.037,16.564-69.125c5.225-22.673,9.829-45.489,15.021-68.172
			c7.442-32.51,15.151-64.961,22.806-97.423c0.923-3.917,1.958-8.043,7.5-7.341C121.399,297.852,122.033,299.629,121.515,302.232z"
			/>
	</g>
</g>
<g>
	<polygon style="fill:#FFFFFF;" points="298.651,372.995 162.239,373.023 65.491,276.319 65.461,139.905 162.166,43.159 
		298.581,43.127 395.328,139.833 395.355,276.247 	"/>
	<g>
		<path style="fill:#99CCEE;" d="M298.651,362.995c-45.391,0.01-90.781,0.019-136.172,0.028c-0.08,0-0.16,0-0.24,0
			c2.357,0.977,4.714,1.952,7.071,2.929c-32.168-32.154-64.337-64.309-96.506-96.462c-0.081-0.081-0.161-0.161-0.241-0.242
			c0.976,2.357,1.953,4.714,2.929,7.071c-0.01-45.392-0.02-90.783-0.03-136.175c0-0.08,0-0.159,0-0.239
			c-0.976,2.357-1.953,4.714-2.929,7.071c32.154-32.168,64.309-64.337,96.463-96.505c0.081-0.081,0.161-0.161,0.241-0.241
			c-2.357,0.976-4.714,1.953-7.071,2.929c45.392-0.01,90.784-0.021,136.175-0.031c0.079,0,0.159,0,0.239,0
			c-2.357-0.976-4.714-1.953-7.071-2.929c32.169,32.154,64.337,64.309,96.506,96.464c0.08,0.081,0.161,0.161,0.241,0.242
			c-0.977-2.357-1.952-4.714-2.929-7.071c0.009,45.392,0.019,90.783,0.027,136.175c0,0.08,0,0.159,0,0.239
			c0.977-2.357,1.952-4.714,2.929-7.071c-32.154,32.169-64.309,64.338-96.463,96.507c-0.08,0.08-0.16,0.161-0.241,0.241
			c-9.125,9.13,5.017,23.271,14.143,14.143c32.154-32.169,64.309-64.338,96.463-96.507c4.899-4.901,3.168-15.184,3.167-21.5
			c-0.003-14.196-0.006-28.393-0.009-42.589c-0.005-25.938-0.01-51.877-0.016-77.816c-0.001-7.199-4.916-10.879-9.582-15.543
			c-9.27-9.265-18.539-18.531-27.808-27.796C348.292,78.678,328.646,59.041,309,39.404c-2.284-2.283-4.52-5.027-7.762-5.919
			c-2.435-0.67-5.342-0.357-7.83-0.356c-11.773,0.003-23.547,0.005-35.321,0.008c-29.169,0.007-58.337,0.013-87.506,0.02
			c-2.69,0-5.381,0.001-8.071,0.002c-3.973,0.001-6.53,2.044-9.074,4.589c-7.253,7.256-14.506,14.513-21.76,21.769
			c-21.254,21.263-42.509,42.527-63.763,63.791c-4.468,4.47-12.453,10.158-12.452,17.064c0.002,8.436,0.004,16.872,0.006,25.308
			c0.007,30.568,0.013,61.137,0.02,91.706c0.001,4.723,0.002,9.445,0.003,14.168c0,3.283-0.367,6.855,1.366,9.813
			c1.253,2.139,3.468,3.927,5.197,5.656c3.395,3.393,6.79,6.786,10.184,10.179c21.603,21.593,43.205,43.186,64.808,64.779
			c5.932,5.929,11.863,11.857,17.795,17.787c4.896,4.893,14.619,3.254,20.952,3.253c30.138-0.006,60.275-0.013,90.413-0.019
			c10.814-0.002,21.63-0.005,32.445-0.007C311.548,382.992,311.548,362.992,298.651,362.995z"/>
	</g>
</g>
<g>
	<path style="fill:#99CCEE;stroke:#99CCEE;stroke-width:3;stroke-miterlimit:10;" d="M191.931,82.122
		c-0.034,0.85-0.068,1.759-0.102,2.728c-0.034,0.969-0.06,2.091-0.076,3.366c-0.018,1.275-0.034,2.737-0.051,4.386
		c-0.018,1.649-0.025,3.562-0.025,5.737c0,2.448,0.008,4.582,0.025,6.4c0.017,1.819,0.042,3.46,0.077,4.921
		c0.034,1.462,0.077,2.814,0.127,4.055c0.051,1.242,0.11,2.524,0.179,3.851l-0.306,0.357c-0.574,0-1.055,0.008-1.442,0.025
		c-0.387,0.017-0.783,0.025-1.188,0.025c-0.405,0-0.834,0.008-1.289,0.026c-0.455,0.017-1.019,0.042-1.693,0.076l-0.304-0.357
		c0.034-0.782,0.059-1.555,0.077-2.32c0.017-0.765,0.033-1.624,0.051-2.576c0.017-0.951,0.034-2.031,0.051-3.238
		c0.017-1.207,0.025-2.626,0.025-4.259c0-3.876-0.018-7.718-0.051-11.526c-0.034-3.808-0.136-7.632-0.306-11.475l0.252-0.408
		c0.54,0,1.02,0,1.441,0c0.422,0,0.835-0.008,1.24-0.026c0.405-0.017,0.834-0.033,1.29-0.051c0.455-0.017,1.003-0.042,1.644-0.077
		L191.931,82.122z"/>
	<path style="fill:#99CCEE;stroke:#99CCEE;stroke-width:3;stroke-miterlimit:10;" d="M222.734,113.742
		c-0.033,0.442-0.059,0.808-0.076,1.097c-0.018,0.289-0.034,0.561-0.051,0.816c-0.018,0.255-0.034,0.527-0.051,0.816
		c-0.018,0.29-0.043,0.655-0.077,1.097l-0.357,0.357c-1.667,0-3.12,0-4.361,0c-1.241,0-2.38,0.008-3.417,0.025
		c-1.037,0.017-2.014,0.025-2.932,0.025s-1.887,0.008-2.907,0.026c-1.02,0.017-2.142,0.033-3.366,0.051
		c-1.224,0.017-2.635,0.025-4.233,0.025l-0.255-0.357c0.034-1.02,0.068-1.989,0.102-2.907c0.034-0.918,0.068-1.972,0.102-3.162
		c0.033-1.19,0.059-2.576,0.077-4.157c0.017-1.581,0.025-3.544,0.025-5.89c0-2.142,0-4.08,0-5.814c0-1.734-0.018-3.357-0.051-4.871
		c-0.034-1.513-0.068-2.966-0.102-4.361c-0.034-1.394-0.102-2.821-0.204-4.284l0.306-0.357c2.516,0,4.607-0.008,6.273-0.026
		c1.666-0.017,3.23-0.025,4.692-0.025c1.461,0,2.983-0.008,4.564-0.025c1.581-0.017,3.544-0.042,5.891-0.077l0.306,0.357
		c-0.034,0.375-0.068,0.706-0.102,0.994c-0.034,0.29-0.068,0.579-0.102,0.867c-0.034,0.289-0.06,0.604-0.076,0.943
		c-0.018,0.34-0.043,0.731-0.077,1.173l-0.306,0.357c-1.632-0.034-3.043-0.068-4.233-0.102c-1.19-0.034-2.329-0.059-3.417-0.077
		c-1.088-0.017-2.218-0.034-3.392-0.051c-1.173-0.017-2.575-0.026-4.208-0.026c-0.034,1.191-0.06,2.202-0.076,3.035
		c-0.018,0.833-0.034,1.632-0.051,2.397c-0.018,0.765-0.025,1.573-0.025,2.422c0,0.851,0,1.854,0,3.009c1.563,0,2.907,0,4.029,0
		c1.122,0,2.193,0,3.213,0s2.082-0.008,3.188-0.025c1.104-0.017,2.439-0.042,4.003-0.077l0.255,0.357
		c-0.068,0.442-0.111,0.816-0.127,1.122c-0.018,0.306-0.034,0.604-0.051,0.893c-0.018,0.289-0.035,0.579-0.051,0.867
		c-0.018,0.29-0.025,0.638-0.025,1.046l-0.306,0.357c-1.497-0.034-2.746-0.059-3.749-0.077c-1.003-0.017-1.981-0.034-2.932-0.051
		c-0.953-0.017-1.998-0.026-3.137-0.026c-1.14,0-2.576,0-4.31,0c-0.034,1.497-0.051,2.737-0.051,3.723c0,0.986,0,1.904,0,2.754
		c0,0.851,0.008,1.708,0.025,2.576c0.017,0.867,0.025,1.913,0.025,3.136c1.938,0,3.544,0,4.819,0c1.275,0,2.456-0.008,3.545-0.025
		c1.087-0.017,2.201-0.042,3.34-0.077c1.139-0.033,2.524-0.084,4.156-0.153L222.734,113.742z"/>
	<path style="fill:#99CCEE;stroke:#99CCEE;stroke-width:3;stroke-miterlimit:10;" d="M250.377,113.742
		c-0.035,0.442-0.061,0.808-0.078,1.097c-0.018,0.289-0.033,0.561-0.051,0.816s-0.033,0.527-0.051,0.816
		c-0.018,0.29-0.043,0.655-0.076,1.097l-0.357,0.357c-1.666,0-3.119,0-4.359,0c-1.242,0-2.381,0.008-3.418,0.025
		c-1.037,0.017-2.014,0.025-2.932,0.025s-1.887,0.008-2.908,0.026c-1.02,0.017-2.141,0.033-3.365,0.051
		c-1.225,0.017-2.635,0.025-4.232,0.025l-0.256-0.357c0.033-1.02,0.068-1.989,0.102-2.907s0.068-1.972,0.102-3.162
		c0.035-1.19,0.061-2.576,0.078-4.157c0.016-1.581,0.025-3.544,0.025-5.89c0-2.142,0-4.08,0-5.814c0-1.734-0.018-3.357-0.051-4.871
		c-0.035-1.513-0.068-2.966-0.104-4.361c-0.033-1.394-0.102-2.821-0.203-4.284l0.307-0.357c2.516,0,4.605-0.008,6.271-0.026
		c1.666-0.017,3.23-0.025,4.693-0.025c1.461,0,2.982-0.008,4.564-0.025c1.58-0.017,3.543-0.042,5.891-0.077l0.305,0.357
		c-0.033,0.375-0.068,0.706-0.102,0.994c-0.033,0.29-0.068,0.579-0.102,0.867c-0.035,0.289-0.061,0.604-0.076,0.943
		c-0.018,0.34-0.043,0.731-0.076,1.173l-0.307,0.357c-1.633-0.034-3.043-0.068-4.232-0.102c-1.191-0.034-2.33-0.059-3.418-0.077
		c-1.088-0.017-2.219-0.034-3.391-0.051c-1.174-0.017-2.576-0.026-4.209-0.026c-0.033,1.191-0.059,2.202-0.076,3.035
		c-0.018,0.833-0.033,1.632-0.051,2.397s-0.025,1.573-0.025,2.422c0,0.851,0,1.854,0,3.009c1.564,0,2.906,0,4.029,0
		c1.121,0,2.193,0,3.213,0s2.082-0.008,3.188-0.025c1.104-0.017,2.439-0.042,4.004-0.077l0.254,0.357
		c-0.068,0.442-0.109,0.816-0.127,1.122s-0.035,0.604-0.051,0.893c-0.018,0.289-0.035,0.579-0.051,0.867
		c-0.018,0.29-0.025,0.638-0.025,1.046l-0.307,0.357c-1.496-0.034-2.746-0.059-3.748-0.077c-1.004-0.017-1.98-0.034-2.934-0.051
		c-0.951-0.017-1.996-0.026-3.137-0.026c-1.139,0-2.574,0-4.309,0c-0.035,1.497-0.051,2.737-0.051,3.723c0,0.986,0,1.904,0,2.754
		c0,0.851,0.008,1.708,0.025,2.576c0.018,0.867,0.025,1.913,0.025,3.136c1.938,0,3.545,0,4.82,0c1.273,0,2.455-0.008,3.543-0.025
		c1.088-0.017,2.201-0.042,3.342-0.077c1.139-0.033,2.523-0.084,4.156-0.153L250.377,113.742z"/>
	<path style="fill:#99CCEE;stroke:#99CCEE;stroke-width:3;stroke-miterlimit:10;" d="M278.02,113.742
		c-0.035,0.442-0.061,0.808-0.078,1.097c-0.018,0.289-0.033,0.561-0.051,0.816s-0.033,0.527-0.051,0.816
		c-0.018,0.29-0.043,0.655-0.076,1.097l-0.357,0.357c-1.666,0-3.119,0-4.359,0c-1.242,0-2.381,0.008-3.418,0.025
		c-1.037,0.017-2.014,0.025-2.932,0.025s-1.887,0.008-2.908,0.026c-1.02,0.017-2.141,0.033-3.365,0.051
		c-1.225,0.017-2.635,0.025-4.232,0.025l-0.256-0.357c0.033-1.02,0.068-1.989,0.102-2.907s0.068-1.972,0.102-3.162
		c0.035-1.19,0.061-2.576,0.078-4.157c0.016-1.581,0.025-3.544,0.025-5.89c0-2.142,0-4.08,0-5.814c0-1.734-0.018-3.357-0.051-4.871
		c-0.035-1.513-0.068-2.966-0.104-4.361c-0.033-1.394-0.102-2.821-0.203-4.284l0.307-0.357c2.516,0,4.605-0.008,6.271-0.026
		c1.666-0.017,3.23-0.025,4.693-0.025c1.461,0,2.982-0.008,4.564-0.025c1.58-0.017,3.543-0.042,5.891-0.077l0.305,0.357
		c-0.033,0.375-0.068,0.706-0.102,0.994c-0.033,0.29-0.068,0.579-0.102,0.867c-0.035,0.289-0.061,0.604-0.076,0.943
		c-0.018,0.34-0.043,0.731-0.076,1.173l-0.307,0.357c-1.633-0.034-3.043-0.068-4.232-0.102c-1.191-0.034-2.33-0.059-3.418-0.077
		c-1.088-0.017-2.219-0.034-3.391-0.051c-1.174-0.017-2.576-0.026-4.209-0.026c-0.033,1.191-0.059,2.202-0.076,3.035
		c-0.018,0.833-0.033,1.632-0.051,2.397s-0.025,1.573-0.025,2.422c0,0.851,0,1.854,0,3.009c1.564,0,2.906,0,4.029,0
		c1.121,0,2.193,0,3.213,0s2.082-0.008,3.188-0.025c1.104-0.017,2.439-0.042,4.004-0.077l0.254,0.357
		c-0.068,0.442-0.109,0.816-0.127,1.122s-0.035,0.604-0.051,0.893c-0.018,0.289-0.035,0.579-0.051,0.867
		c-0.018,0.29-0.025,0.638-0.025,1.046l-0.307,0.357c-1.496-0.034-2.746-0.059-3.748-0.077c-1.004-0.017-1.98-0.034-2.934-0.051
		c-0.951-0.017-1.996-0.026-3.137-0.026c-1.139,0-2.574,0-4.309,0c-0.035,1.497-0.051,2.737-0.051,3.723c0,0.986,0,1.904,0,2.754
		c0,0.851,0.008,1.708,0.025,2.576c0.018,0.867,0.025,1.913,0.025,3.136c1.938,0,3.545,0,4.82,0c1.273,0,2.455-0.008,3.543-0.025
		c1.088-0.017,2.201-0.042,3.342-0.077c1.139-0.033,2.523-0.084,4.156-0.153L278.02,113.742z"/>
</g>
<g>
	<path style="fill:#99CCEE;stroke:#99CCEE;stroke-miterlimit:10;" d="M170.308,153.163c0.65,2.158,1.319,4.368,2.009,6.63
		c0.688,2.262,1.332,4.329,1.931,6.201c0.312,0.936,0.656,1.989,1.033,3.159c0.376,1.17,0.761,2.366,1.15,3.588
		c0.39,1.223,0.773,2.418,1.151,3.588c0.376,1.17,0.708,2.223,0.994,3.159l-0.156,0.312c-0.521,0-0.969,0.007-1.346,0.02
		c-0.377,0.014-0.735,0.026-1.072,0.039c-0.338,0.014-0.67,0.025-0.995,0.039c-0.325,0.013-0.696,0.032-1.111,0.059l-0.273-0.273
		c-0.234-0.91-0.442-1.69-0.624-2.34c-0.183-0.649-0.351-1.261-0.507-1.833c-0.156-0.571-0.325-1.17-0.507-1.794
		c-0.182-0.624-0.403-1.378-0.663-2.262c-0.78,0-1.554-0.006-2.32-0.02c-0.768-0.013-1.541-0.02-2.321-0.02
		c-0.858,0-1.723,0.007-2.593,0.02c-0.872,0.013-1.697,0.02-2.477,0.02c-0.287,0.91-0.521,1.684-0.702,2.32
		c-0.182,0.637-0.351,1.235-0.507,1.794c-0.156,0.56-0.319,1.145-0.487,1.755c-0.169,0.611-0.371,1.346-0.604,2.204l-0.273,0.273
		c-0.416,0-0.767,0-1.053,0c-0.287,0-0.565,0.007-0.838,0.02c-0.273,0.014-0.572,0.026-0.897,0.039
		c-0.326,0.014-0.735,0.032-1.229,0.059l-0.156-0.273c0.052-0.208,0.117-0.41,0.195-0.604c0.078-0.195,0.156-0.396,0.234-0.604
		c1.482-4.212,2.925-8.424,4.329-12.636c0.571-1.716,1.072-3.198,1.501-4.446c0.429-1.248,0.805-2.359,1.131-3.334
		c0.325-0.975,0.617-1.885,0.877-2.73c0.26-0.845,0.533-1.736,0.819-2.672l0.312-0.273c0.676,0,1.229-0.006,1.658-0.02
		c0.429-0.013,0.832-0.025,1.209-0.039c0.376-0.013,0.767-0.026,1.17-0.039c0.403-0.013,0.917-0.032,1.541-0.059l0.273,0.273
		L170.308,153.163z M162.586,168.333c0.624,0,1.248,0.007,1.872,0.02c0.624,0.013,1.248,0.02,1.872,0.02
		c0.676,0,1.358-0.006,2.048-0.02c0.688-0.013,1.371-0.02,2.047-0.02l-3.744-13.182L162.586,168.333z"/>
	<path style="fill:#99CCEE;stroke:#99CCEE;stroke-miterlimit:10;" d="M205.252,179.877c-0.677,0-1.223,0-1.638,0
		c-0.417,0-0.813,0.006-1.189,0.02c-0.377,0.013-0.774,0.025-1.189,0.039c-0.417,0.013-0.95,0.032-1.599,0.059l-0.273-0.273
		c-0.156-0.962-0.292-1.781-0.41-2.457c-0.117-0.676-0.228-1.3-0.332-1.872c-0.104-0.572-0.208-1.131-0.312-1.677
		c-0.104-0.546-0.221-1.17-0.351-1.872l-3.198-16.809l-3.237,15.912c-0.104,0.521-0.202,1.053-0.292,1.599
		c-0.092,0.546-0.202,1.079-0.332,1.599c-0.078,0.416-0.169,0.891-0.273,1.423c-0.104,0.533-0.208,1.06-0.312,1.58
		c-0.104,0.521-0.202,1.001-0.293,1.443c-0.091,0.442-0.15,0.78-0.175,1.014l-0.234,0.273c-0.702,0-1.268,0-1.697,0
		c-0.429,0-0.826,0.006-1.189,0.02c-0.364,0.013-0.748,0.025-1.15,0.039c-0.403,0.013-0.943,0.032-1.619,0.059l-0.273-0.273
		c-0.13-0.572-0.312-1.443-0.546-2.613s-0.521-2.509-0.858-4.017c-0.338-1.507-0.702-3.152-1.092-4.934
		c-0.39-1.78-0.793-3.574-1.209-5.382c-0.416-1.807-0.826-3.588-1.229-5.343c-0.403-1.755-0.773-3.36-1.111-4.817l0.195-0.273
		c0.546,0,0.995,0,1.346,0s0.676-0.006,0.975-0.02c0.298-0.013,0.61-0.025,0.936-0.039c0.325-0.013,0.721-0.033,1.189-0.059
		l0.234,0.273c0.13,0.676,0.253,1.359,0.371,2.047c0.117,0.689,0.266,1.528,0.448,2.516c0.156,0.884,0.312,1.755,0.468,2.613
		c0.156,0.858,0.312,1.716,0.468,2.574l2.847,14.898l3.276-17.277c0.13-0.702,0.24-1.293,0.332-1.775
		c0.091-0.48,0.182-0.961,0.273-1.443c0.091-0.48,0.188-1.027,0.292-1.638c0.104-0.611,0.247-1.41,0.429-2.399l0.234-0.273
		c0.728,0,1.339-0.006,1.833-0.02c0.494-0.013,0.949-0.02,1.365-0.02c0.416,0,0.851-0.006,1.306-0.019
		c0.455-0.013,1.021-0.033,1.697-0.059l0.234,0.273c0.025,0.156,0.045,0.312,0.059,0.468c0.013,0.156,0.032,0.326,0.059,0.507
		c0.025,0.26,0.097,0.721,0.214,1.384s0.247,1.385,0.39,2.165c0.143,0.78,0.279,1.521,0.409,2.223
		c0.13,0.702,0.221,1.222,0.273,1.56l3.081,16.458l3.042-15.405c0.364-1.872,0.644-3.334,0.839-4.387
		c0.195-1.053,0.351-1.872,0.468-2.457s0.195-1.034,0.234-1.346s0.084-0.663,0.137-1.053l0.234-0.273c0.442,0,0.812,0,1.111,0
		s0.585-0.006,0.858-0.02c0.273-0.013,0.546-0.025,0.819-0.039s0.617-0.033,1.034-0.059l0.195,0.273
		c-0.234,0.754-0.436,1.443-0.604,2.067c-0.169,0.624-0.358,1.391-0.565,2.301c-0.208,0.91-0.475,2.08-0.8,3.51
		c-0.325,1.43-0.76,3.329-1.306,5.694c-0.495,2.132-0.989,4.251-1.482,6.357c-0.494,2.106-0.962,4.226-1.404,6.357
		c-0.026,0.13-0.052,0.267-0.078,0.409c-0.026,0.144-0.052,0.28-0.078,0.41L205.252,179.877z"/>
	<path style="fill:#99CCEE;stroke:#99CCEE;stroke-miterlimit:10;" d="M225.612,153.163c0.648,2.158,1.318,4.368,2.008,6.63
		c0.689,2.262,1.332,4.329,1.93,6.201c0.312,0.936,0.656,1.989,1.035,3.159c0.375,1.17,0.76,2.366,1.15,3.588
		c0.389,1.223,0.773,2.418,1.15,3.588c0.375,1.17,0.707,2.223,0.994,3.159l-0.156,0.312c-0.52,0-0.969,0.007-1.346,0.02
		c-0.377,0.014-0.734,0.026-1.072,0.039c-0.338,0.014-0.67,0.025-0.994,0.039c-0.326,0.013-0.697,0.032-1.111,0.059l-0.273-0.273
		c-0.234-0.91-0.443-1.69-0.625-2.34c-0.182-0.649-0.35-1.261-0.506-1.833c-0.156-0.571-0.326-1.17-0.508-1.794
		s-0.402-1.378-0.662-2.262c-0.781,0-1.555-0.006-2.32-0.02c-0.768-0.013-1.541-0.02-2.321-0.02c-0.858,0-1.723,0.007-2.593,0.02
		c-0.872,0.013-1.697,0.02-2.477,0.02c-0.287,0.91-0.521,1.684-0.702,2.32c-0.182,0.637-0.351,1.235-0.507,1.794
		c-0.156,0.56-0.319,1.145-0.487,1.755c-0.169,0.611-0.371,1.346-0.604,2.204l-0.273,0.273c-0.416,0-0.767,0-1.053,0
		c-0.287,0-0.565,0.007-0.838,0.02c-0.273,0.014-0.572,0.026-0.897,0.039c-0.326,0.014-0.735,0.032-1.229,0.059l-0.156-0.273
		c0.052-0.208,0.117-0.41,0.195-0.604c0.078-0.195,0.156-0.396,0.234-0.604c1.482-4.212,2.925-8.424,4.329-12.636
		c0.571-1.716,1.072-3.198,1.501-4.446c0.429-1.248,0.805-2.359,1.131-3.334c0.325-0.975,0.617-1.885,0.877-2.73
		c0.26-0.845,0.533-1.736,0.819-2.672l0.312-0.273c0.676,0,1.229-0.006,1.658-0.02c0.429-0.013,0.832-0.025,1.209-0.039
		c0.376-0.013,0.767-0.026,1.169-0.039s0.918-0.032,1.541-0.059l0.273,0.273L225.612,153.163z M217.889,168.333
		c0.624,0,1.248,0.007,1.872,0.02c0.624,0.013,1.248,0.02,1.872,0.02c0.676,0,1.358-0.006,2.047-0.02
		c0.689-0.013,1.371-0.02,2.049-0.02l-3.745-13.182L217.889,168.333z"/>
	<path style="fill:#99CCEE;stroke:#99CCEE;stroke-miterlimit:10;" d="M241.368,179.877c-0.553,0-0.992,0-1.32,0
		s-0.629,0.006-0.904,0.02c-0.275,0.013-0.57,0.025-0.885,0.039c-0.316,0.013-0.723,0.032-1.221,0.059l-0.234-0.273
		c0.053-1.898,0.092-3.796,0.117-5.694c0.025-1.897,0.039-3.796,0.039-5.694c0-2.184-0.006-4.049-0.02-5.597
		c-0.014-1.546-0.039-2.905-0.078-4.075c-0.039-1.17-0.084-2.223-0.137-3.159s-0.104-1.897-0.156-2.886l0.234-0.273h0.975
		c0.365,0,0.943-0.006,1.736-0.02c0.793-0.013,1.527-0.02,2.203-0.02l2.379-0.039c1.092,0,2.146,0.026,3.16,0.078
		c1.014,0.053,2.002,0.248,2.963,0.585c1.508,0.521,2.705,1.333,3.588,2.438c0.885,1.105,1.326,2.594,1.326,4.466
		c0,0.78-0.111,1.554-0.332,2.32c-0.221,0.767-0.598,1.489-1.131,2.165c-0.533,0.676-1.221,1.287-2.066,1.833
		s-1.891,0.988-3.139,1.326c0.156,0.234,0.441,0.644,0.857,1.229s0.857,1.215,1.326,1.891c0.469,0.677,0.91,1.32,1.326,1.931
		c0.416,0.611,0.715,1.047,0.896,1.307c0.312,0.442,0.592,0.833,0.838,1.17c0.248,0.338,0.514,0.708,0.801,1.111
		c0.285,0.404,0.629,0.872,1.033,1.404c0.402,0.533,0.902,1.203,1.502,2.008l-0.156,0.39c-0.391,0-0.787,0-1.189,0
		c-0.404,0-0.801,0.013-1.189,0.039c-0.416,0.025-0.826,0.045-1.229,0.059c-0.404,0.013-0.812,0.045-1.229,0.097l-0.273-0.195
		l-0.469-0.819c-0.572-0.988-1.176-1.957-1.812-2.906c-0.639-0.949-1.266-1.904-1.887-2.866c-0.596-0.884-1.066-1.593-1.416-2.126
		c-0.35-0.532-0.641-0.975-0.873-1.326s-0.434-0.65-0.602-0.897s-0.367-0.526-0.602-0.838c-0.311,0-0.562,0.006-0.756,0.019
		c-0.193,0.014-0.387,0.02-0.582,0.02c-0.193,0-0.4,0-0.621,0c-0.219,0-0.498,0-0.832,0c0,0.546,0,1.294,0,2.243
		c0,0.949,0.012,1.97,0.039,3.062c0.025,1.092,0.057,2.184,0.096,3.276c0.039,1.092,0.084,2.042,0.137,2.847L241.368,179.877z
		 M241.25,164.979c0.725,0,1.469,0,2.232,0s1.494-0.045,2.195-0.136c0.697-0.09,1.359-0.24,1.98-0.447
		c0.621-0.208,1.164-0.518,1.631-0.933c0.492-0.414,0.861-0.906,1.107-1.476c0.246-0.569,0.369-1.165,0.369-1.787
		c0-0.415-0.053-0.854-0.156-1.321c-0.104-0.465-0.297-0.919-0.582-1.359c-0.311-0.466-0.674-0.835-1.088-1.106
		c-0.414-0.272-0.887-0.479-1.418-0.622s-1.107-0.227-1.729-0.252c-0.621-0.026-1.293-0.039-2.02-0.039c-0.258,0-0.576,0-0.951,0
		s-0.9,0.013-1.572,0.039c0,1.14-0.008,2.065-0.02,2.777c-0.014,0.712-0.02,1.386-0.02,2.02s0.006,1.294,0.02,1.98
		C241.243,163.005,241.25,163.892,241.25,164.979z"/>
	<path style="fill:#99CCEE;stroke:#99CCEE;stroke-miterlimit:10;" d="M261.334,179.995l-0.195-0.273
		c0.051-1.586,0.09-3.166,0.117-4.739c0.025-1.573,0.039-3.36,0.039-5.362c0-2.73-0.008-5.012-0.02-6.845
		c-0.014-1.833-0.039-3.379-0.078-4.641c-0.039-1.261-0.078-2.313-0.117-3.159c-0.039-0.845-0.086-1.631-0.137-2.36l0.234-0.273
		l5.732-0.117c1.145-0.026,2.248-0.032,3.314-0.02c1.066,0.013,2.094,0.078,3.082,0.195c0.988,0.117,1.936,0.312,2.846,0.585
		s1.77,0.67,2.574,1.189c0.859,0.546,1.58,1.164,2.166,1.853c0.584,0.689,1.064,1.404,1.441,2.145
		c0.377,0.741,0.67,1.482,0.879,2.223c0.207,0.741,0.357,1.437,0.447,2.086c0.092,0.65,0.143,1.235,0.156,1.755
		c0.014,0.521,0.02,0.911,0.02,1.17c0,1.092-0.078,2.171-0.234,3.237c-0.156,1.066-0.428,2.106-0.818,3.12
		c-0.598,1.586-1.352,2.88-2.262,3.88c-0.91,1.001-1.885,1.794-2.926,2.379c-1.039,0.585-2.111,1.001-3.217,1.248
		c-1.105,0.248-2.152,0.423-3.141,0.526c-0.389,0.053-0.74,0.084-1.053,0.098c-0.311,0.013-0.715,0.025-1.209,0.039
		c-0.494,0.013-1.131,0.02-1.91,0.02s-1.82,0-3.121,0L261.334,179.995z M265.702,176.679c1.297,0.026,2.572,0.014,3.83-0.039
		c1.258-0.052,2.443-0.254,3.559-0.604c1.115-0.351,2.119-0.93,3.014-1.736c0.895-0.806,1.641-1.95,2.236-3.432
		c0.336-0.858,0.576-1.761,0.719-2.711c0.143-0.949,0.215-1.969,0.215-3.061c0-0.312-0.014-0.78-0.039-1.404
		s-0.131-1.307-0.311-2.047c-0.182-0.741-0.467-1.495-0.857-2.262c-0.389-0.767-0.934-1.462-1.633-2.086
		c-0.57-0.494-1.186-0.871-1.846-1.131c-0.662-0.26-1.303-0.449-1.926-0.565c-0.623-0.117-1.213-0.188-1.77-0.215
		c-0.559-0.025-1.031-0.039-1.42-0.039c-0.674,0-1.303,0.006-1.885,0.019c-0.584,0.014-1.213,0.033-1.887,0.059
		c-0.025,0.624-0.045,1.203-0.059,1.736c-0.014,0.533-0.025,1.15-0.039,1.852c-0.014,0.702-0.02,1.535-0.02,2.496
		c0,0.962,0,2.171,0,3.627c0,1.794,0,3.237,0,4.329c0,1.092,0.006,2.022,0.02,2.789c0.014,0.767,0.025,1.476,0.039,2.125
		C265.657,175.029,265.676,175.796,265.702,176.679z"/>
	<path style="fill:#99CCEE;stroke:#99CCEE;stroke-miterlimit:10;" d="M298.696,164.277c0.701,0.312,1.441,0.663,2.223,1.053
		c0.779,0.39,1.494,0.884,2.145,1.482c0.65,0.598,1.189,1.326,1.619,2.184c0.428,0.858,0.643,1.911,0.643,3.159
		c0,1.092-0.201,2.139-0.604,3.14c-0.404,1.001-1.021,1.885-1.854,2.652c-0.832,0.768-1.879,1.378-3.139,1.833
		c-1.262,0.455-2.736,0.683-4.428,0.683c-1.039,0-1.982-0.065-2.826-0.195c-0.846-0.13-1.594-0.292-2.242-0.488
		c-0.65-0.195-1.197-0.383-1.639-0.565c-0.443-0.182-0.779-0.337-1.014-0.468l-0.156-0.273c0.025-0.338,0.059-0.644,0.098-0.917
		s0.064-0.546,0.078-0.819c0.012-0.273,0.031-0.559,0.059-0.858c0.025-0.298,0.051-0.63,0.078-0.995l0.389-0.156
		c0.234,0.156,0.559,0.364,0.975,0.624c0.416,0.26,0.904,0.514,1.463,0.76c0.559,0.248,1.209,0.462,1.951,0.644
		c0.74,0.182,1.566,0.273,2.477,0.273c1.014,0,1.877-0.117,2.594-0.351c0.715-0.234,1.299-0.559,1.754-0.975
		c0.455-0.416,0.793-0.884,1.014-1.404c0.221-0.52,0.332-1.079,0.332-1.677c0-0.676-0.131-1.261-0.391-1.755
		c-0.26-0.494-0.611-0.923-1.053-1.287c-0.441-0.364-0.955-0.683-1.541-0.956c-0.584-0.273-1.189-0.526-1.812-0.761l-1.949-0.858
		c-0.703-0.312-1.432-0.669-2.186-1.072c-0.754-0.403-1.449-0.897-2.086-1.482s-1.164-1.293-1.58-2.125s-0.623-1.846-0.623-3.042
		c0-0.728,0.098-1.443,0.293-2.145c0.193-0.702,0.5-1.352,0.916-1.95c0.91-1.3,2.105-2.197,3.588-2.691
		c1.482-0.494,3.016-0.741,4.602-0.741c1.533,0,2.828,0.124,3.881,0.371c1.053,0.248,2.1,0.54,3.139,0.877l0.195,0.312
		c-0.053,0.364-0.092,0.683-0.117,0.956s-0.045,0.533-0.059,0.78c-0.014,0.248-0.031,0.507-0.059,0.78
		c-0.025,0.273-0.051,0.579-0.078,0.917l-0.311,0.156c-0.832-0.416-1.75-0.819-2.75-1.209c-1.002-0.39-2.23-0.585-3.686-0.585
		c-1.639,0-2.926,0.345-3.861,1.034c-0.936,0.689-1.404,1.619-1.404,2.789c0,0.442,0.064,0.826,0.195,1.15
		c0.131,0.325,0.293,0.611,0.488,0.858c0.195,0.248,0.408,0.455,0.643,0.624c0.234,0.169,0.455,0.319,0.664,0.449
		c0.129,0.078,0.246,0.15,0.35,0.214c0.104,0.065,0.254,0.143,0.449,0.234c0.195,0.091,0.461,0.208,0.799,0.351
		c0.338,0.143,0.807,0.345,1.404,0.604L298.696,164.277z"/>
	<path style="fill:#99CCEE;stroke:#99CCEE;stroke-miterlimit:10;" d="M239.655,215.907c-0.201,0-0.4-0.005-0.602-0.015
		c-0.199-0.01-0.41-0.015-0.629-0.015c-0.102,0-0.266,0.005-0.496,0.015c-0.229,0.01-0.484,0.015-0.764,0.015
		c-0.281,0.02-0.531,0.035-0.75,0.045c-0.221,0.01-0.381,0.015-0.48,0.015l-0.24-0.15c-0.119-0.2-0.23-0.37-0.33-0.51
		c-0.1-0.14-0.195-0.285-0.285-0.435s-0.195-0.305-0.314-0.465c-0.121-0.16-0.26-0.35-0.42-0.57
		c-0.221,0.18-0.506,0.405-0.855,0.675c-0.35,0.27-0.766,0.525-1.244,0.765c-0.48,0.24-1.021,0.445-1.621,0.615
		c-0.6,0.169-1.27,0.255-2.01,0.255c-0.939,0-1.766-0.15-2.475-0.45c-0.711-0.3-1.301-0.7-1.77-1.2
		c-0.471-0.5-0.826-1.07-1.064-1.71c-0.241-0.64-0.361-1.29-0.361-1.95c0-0.78,0.125-1.455,0.375-2.025s0.58-1.085,0.99-1.545
		s0.879-0.87,1.41-1.23c0.529-0.36,1.074-0.72,1.635-1.08c-0.221-0.26-0.455-0.565-0.705-0.915c-0.25-0.35-0.49-0.735-0.721-1.155
		c-0.229-0.42-0.42-0.875-0.568-1.365c-0.15-0.49-0.227-1.015-0.227-1.575c0-0.6,0.115-1.185,0.346-1.755s0.564-1.075,1.006-1.515
		c0.439-0.439,0.979-0.795,1.619-1.065s1.369-0.405,2.189-0.405c0.781,0,1.475,0.12,2.086,0.36c0.609,0.24,1.125,0.565,1.545,0.975
		c0.42,0.41,0.74,0.885,0.959,1.425c0.221,0.54,0.33,1.11,0.33,1.71c0,0.74-0.145,1.4-0.434,1.98
		c-0.291,0.581-0.646,1.095-1.066,1.545c-0.42,0.45-0.859,0.835-1.32,1.155c-0.459,0.32-0.859,0.59-1.199,0.81l3.66,4.59
		c0.42-0.58,0.799-1.225,1.141-1.935c0.34-0.709,0.629-1.405,0.869-2.085l0.211-0.03c0.18,0.24,0.33,0.44,0.449,0.6
		s0.234,0.31,0.346,0.45c0.109,0.14,0.225,0.28,0.344,0.42c0.121,0.14,0.281,0.32,0.48,0.54l0.029,0.27
		c-0.439,0.96-0.879,1.74-1.318,2.34c-0.441,0.6-0.791,1.06-1.051,1.38c0.141,0.18,0.346,0.44,0.615,0.78
		c0.27,0.34,0.57,0.701,0.9,1.08c0.33,0.38,0.664,0.76,1.004,1.14s0.641,0.69,0.9,0.93L239.655,215.907z M228.825,206.788
		c-0.82,0.56-1.5,1.14-2.041,1.74c-0.539,0.6-0.811,1.32-0.811,2.16s0.291,1.55,0.871,2.13c0.58,0.581,1.34,0.87,2.279,0.87
		c0.4,0,0.945-0.1,1.635-0.3c0.691-0.199,1.426-0.649,2.205-1.35L228.825,206.788z M229.815,203.337
		c0.318-0.22,0.645-0.45,0.975-0.69c0.33-0.24,0.625-0.505,0.885-0.795c0.26-0.29,0.475-0.61,0.645-0.96
		c0.17-0.35,0.256-0.745,0.256-1.185c0-0.7-0.227-1.27-0.676-1.71s-1.006-0.66-1.664-0.66c-0.621,0-1.156,0.206-1.605,0.615
		c-0.451,0.41-0.676,0.975-0.676,1.695c0,0.18,0.02,0.385,0.061,0.615c0.039,0.23,0.125,0.491,0.254,0.78
		c0.131,0.29,0.316,0.625,0.557,1.005C229.065,202.428,229.393,202.857,229.815,203.337z"/>
	<path style="fill:#99CCEE;stroke:#99CCEE;stroke-miterlimit:10;" d="M161.946,258.612c-0.052,0.468-0.091,0.858-0.117,1.17
		c-0.026,0.312-0.046,0.604-0.059,0.878c-0.014,0.273-0.026,0.552-0.039,0.838c-0.014,0.286-0.033,0.611-0.059,0.975l-0.234,0.273
		c-0.234,0.13-0.565,0.292-0.995,0.487c-0.429,0.195-0.956,0.384-1.58,0.565s-1.333,0.338-2.125,0.468
		c-0.793,0.13-1.684,0.195-2.671,0.195c-2.132,0-4.037-0.338-5.713-1.014c-1.677-0.676-3.101-1.638-4.271-2.886
		s-2.061-2.756-2.671-4.524c-0.611-1.768-0.917-3.744-0.917-5.928c0-0.468,0.025-1.098,0.078-1.892
		c0.052-0.792,0.195-1.657,0.429-2.593s0.585-1.911,1.053-2.925c0.468-1.014,1.131-1.989,1.989-2.925
		c0.832-0.91,1.703-1.631,2.613-2.165c0.91-0.533,1.82-0.936,2.73-1.209s1.788-0.448,2.633-0.526
		c0.845-0.078,1.618-0.117,2.32-0.117c1.794,0,3.27,0.15,4.427,0.449c1.156,0.299,2.06,0.565,2.71,0.799l0.156,0.312
		c-0.052,0.364-0.091,0.67-0.117,0.917c-0.026,0.248-0.053,0.488-0.078,0.722c-0.026,0.234-0.052,0.494-0.078,0.78
		c-0.026,0.287-0.052,0.638-0.078,1.053l-0.351,0.156c-0.208-0.13-0.481-0.292-0.819-0.487s-0.767-0.39-1.287-0.585
		c-0.52-0.195-1.118-0.357-1.794-0.488c-0.676-0.129-1.443-0.195-2.301-0.195c-1.56,0-2.938,0.26-4.134,0.78
		c-1.196,0.521-2.203,1.248-3.022,2.184c-0.819,0.936-1.437,2.074-1.853,3.413c-0.416,1.339-0.624,2.828-0.624,4.465
		c0,1.847,0.234,3.446,0.702,4.797c0.468,1.352,1.125,2.477,1.97,3.374c0.844,0.897,1.839,1.56,2.983,1.989
		c1.144,0.429,2.392,0.644,3.744,0.644c0.91,0,1.741-0.084,2.496-0.253c0.754-0.169,1.424-0.376,2.009-0.624
		c0.585-0.247,1.098-0.507,1.541-0.78c0.442-0.273,0.819-0.513,1.131-0.721L161.946,258.612z"/>
	<path style="fill:#99CCEE;stroke:#99CCEE;stroke-miterlimit:10;" d="M176.727,264.462c-2.028,0-3.822-0.332-5.382-0.995
		c-1.56-0.663-2.88-1.612-3.958-2.847c-1.079-1.235-1.898-2.724-2.457-4.466c-0.56-1.741-0.838-3.691-0.838-5.85
		c0-2.184,0.286-4.173,0.858-5.967c0.571-1.794,1.404-3.321,2.496-4.583c1.092-1.261,2.424-2.242,3.997-2.944
		s3.374-1.053,5.402-1.053c1.924,0,3.666,0.332,5.226,0.995c1.56,0.663,2.886,1.612,3.978,2.847c1.092,1.235,1.93,2.75,2.515,4.543
		s0.877,3.822,0.877,6.084c0,2.34-0.299,4.394-0.897,6.162s-1.456,3.25-2.574,4.446c-1.118,1.196-2.457,2.1-4.017,2.71
		C180.393,264.157,178.651,264.462,176.727,264.462z M176.805,261.187c1.43,0,2.652-0.299,3.666-0.898s1.839-1.413,2.477-2.441
		c0.637-1.029,1.104-2.221,1.404-3.575c0.299-1.354,0.449-2.774,0.449-4.258c0-0.365-0.02-0.854-0.059-1.465
		s-0.117-1.283-0.234-2.012c-0.117-0.729-0.287-1.465-0.507-2.207c-0.221-0.742-0.514-1.413-0.877-2.012
		c-0.521-0.833-1.092-1.478-1.716-1.934c-0.624-0.456-1.235-0.788-1.833-0.996c-0.599-0.208-1.145-0.333-1.638-0.371
		c-0.494-0.039-0.858-0.059-1.092-0.059c-0.911,0-1.71,0.111-2.398,0.332c-0.689,0.222-1.287,0.501-1.794,0.84
		c-0.507,0.339-0.93,0.696-1.268,1.074c-0.338,0.378-0.611,0.736-0.819,1.074c-0.364,0.573-0.663,1.218-0.897,1.934
		c-0.234,0.717-0.416,1.433-0.546,2.149c-0.13,0.716-0.214,1.394-0.253,2.032s-0.059,1.179-0.059,1.622
		c0,0.469,0.02,1.016,0.059,1.641c0.039,0.625,0.117,1.276,0.234,1.953c0.117,0.678,0.279,1.355,0.488,2.032
		c0.208,0.678,0.48,1.302,0.819,1.875c0.676,1.146,1.546,2.045,2.613,2.696C174.088,260.861,175.349,261.187,176.805,261.187z"/>
	<path style="fill:#99CCEE;stroke:#99CCEE;stroke-miterlimit:10;" d="M216.156,263.604l-0.195,0.273c-0.572,0-1.033,0-1.384,0
		s-0.683,0.006-0.995,0.02c-0.312,0.013-0.65,0.025-1.014,0.039c-0.364,0.013-0.832,0.032-1.404,0.059l-0.312-0.273
		c-1.17-2.054-2.327-4.102-3.471-6.143c-1.145-2.041-2.301-4.088-3.471-6.143l-6.162-10.998l0.39,13.377
		c0.025,0.833,0.052,1.645,0.078,2.438c0.025,0.793,0.052,1.606,0.078,2.438c0.026,0.806,0.045,1.443,0.059,1.911
		c0.013,0.468,0.026,0.858,0.039,1.17c0.013,0.312,0.025,0.598,0.039,0.858c0.013,0.26,0.032,0.585,0.059,0.975l-0.234,0.273
		c-0.442,0-0.793,0-1.053,0c-0.26,0-0.514,0.006-0.761,0.02c-0.247,0.013-0.514,0.025-0.799,0.039
		c-0.287,0.013-0.663,0.032-1.131,0.059l-0.234-0.273c0.078-1.872,0.129-3.731,0.156-5.577c0.025-1.846,0.039-3.705,0.039-5.577
		c0-2.678-0.014-5.336-0.039-7.976c-0.026-2.639-0.091-5.297-0.195-7.976l0.195-0.273c0.598,0,1.092-0.006,1.482-0.02
		c0.39-0.013,0.754-0.02,1.092-0.02c0.337,0,0.695-0.006,1.072-0.019c0.376-0.013,0.838-0.033,1.385-0.059l0.39,0.273
		c1.326,2.393,2.658,4.791,3.998,7.195c1.339,2.405,2.658,4.752,3.958,7.04l4.836,8.541l-0.312-12.948
		c-0.052-1.534-0.091-2.775-0.117-3.725c-0.026-0.949-0.046-1.755-0.059-2.418c-0.014-0.663-0.039-1.254-0.078-1.774
		s-0.072-1.118-0.098-1.794l0.234-0.273c0.441,0,0.812,0,1.111,0c0.299,0,0.572-0.006,0.819-0.02
		c0.247-0.013,0.507-0.025,0.78-0.039s0.604-0.033,0.994-0.059l0.234,0.273c-0.053,2.393-0.091,4.791-0.117,7.195
		c-0.026,2.405-0.039,4.816-0.039,7.234c0,3.692,0.039,7.371,0.117,11.037L216.156,263.604z"/>
	<path style="fill:#99CCEE;stroke:#99CCEE;stroke-miterlimit:10;" d="M238.682,239.078c-0.854-0.026-1.553-0.046-2.1-0.06
		c-0.547-0.013-1.066-0.02-1.561-0.02c-0.492,0-1.02,0-1.578,0c-0.561,0-1.268,0-2.121,0c-0.027,1.014-0.047,1.84-0.061,2.48
		s-0.02,1.234-0.02,1.78c0,0.547,0,1.12,0,1.72s0,1.34,0,2.22c0,2.507,0.006,4.66,0.02,6.46c0.014,1.8,0.033,3.334,0.061,4.6
		c0.027,1.267,0.061,2.327,0.1,3.18c0.041,0.854,0.074,1.574,0.1,2.16l-0.238,0.28c-0.561,0-1.014,0-1.361,0
		c-0.346,0-0.666,0.006-0.959,0.02c-0.295,0.013-0.607,0.026-0.941,0.04c-0.332,0.013-0.779,0.033-1.34,0.06l-0.199-0.28
		c0.105-2.826,0.174-5.626,0.199-8.4c0.027-2.773,0.041-5.573,0.041-8.4c0-2.026-0.014-3.64-0.041-4.84
		c-0.025-1.2-0.053-2.227-0.08-3.08c-0.879,0-1.594,0.007-2.139,0.02c-0.547,0.014-1.066,0.027-1.561,0.04
		c-0.494,0.014-1.02,0.027-1.58,0.04c-0.56,0.014-1.28,0.034-2.16,0.06l-0.24-0.28c0.027-0.346,0.047-0.633,0.06-0.86
		c0.014-0.227,0.02-0.433,0.02-0.62c0-0.186,0.006-0.393,0.02-0.62c0.013-0.226,0.033-0.513,0.06-0.86l0.2-0.28
		c0.72,0,1.526,0,2.42,0c0.893,0,1.813,0,2.76,0c0.945,0,1.865-0.006,2.76-0.02c0.893-0.013,1.699-0.02,2.42-0.02
		c1.547,0,3.086-0.006,4.619-0.02c1.533-0.013,3.074-0.033,4.621-0.06l0.199,0.28c-0.027,0.347-0.053,0.647-0.08,0.9
		c-0.027,0.254-0.047,0.487-0.059,0.7c-0.016,0.214-0.021,0.427-0.021,0.64s0,0.467,0,0.76L238.682,239.078z"/>
	<path style="fill:#99CCEE;stroke:#99CCEE;stroke-miterlimit:10;" d="M259.284,260.598c-0.027,0.347-0.047,0.633-0.061,0.86
		s-0.027,0.44-0.041,0.64c-0.014,0.2-0.025,0.414-0.039,0.64c-0.014,0.227-0.033,0.514-0.061,0.86l-0.279,0.28
		c-1.307,0-2.447,0-3.42,0c-0.975,0-1.867,0.006-2.68,0.02c-0.814,0.013-1.58,0.02-2.301,0.02s-1.48,0.006-2.279,0.02
		c-0.801,0.013-1.68,0.026-2.641,0.04c-0.961,0.013-2.066,0.02-3.32,0.02l-0.199-0.28c0.025-0.8,0.053-1.56,0.08-2.28
		c0.025-0.72,0.053-1.546,0.08-2.48c0.025-0.933,0.045-2.02,0.059-3.26c0.014-1.24,0.021-2.78,0.021-4.62c0-1.68,0-3.2,0-4.56
		c0-1.36-0.014-2.633-0.041-3.82c-0.027-1.186-0.053-2.326-0.08-3.42c-0.027-1.093-0.08-2.213-0.16-3.36l0.24-0.28
		c1.973,0,3.613-0.006,4.92-0.02c1.307-0.013,2.533-0.02,3.68-0.02s2.34-0.006,3.58-0.02c1.24-0.013,2.781-0.033,4.621-0.06
		l0.24,0.28c-0.027,0.294-0.055,0.554-0.08,0.78c-0.027,0.227-0.055,0.454-0.08,0.68c-0.027,0.227-0.047,0.474-0.061,0.74
		s-0.033,0.574-0.061,0.92l-0.24,0.28c-1.279-0.026-2.387-0.053-3.318-0.08c-0.936-0.026-1.828-0.046-2.682-0.06
		c-0.854-0.013-1.738-0.026-2.66-0.04c-0.92-0.013-2.02-0.02-3.299-0.02c-0.027,0.934-0.047,1.727-0.061,2.38
		c-0.014,0.654-0.027,1.28-0.039,1.88c-0.014,0.6-0.021,1.234-0.021,1.9c0,0.667,0,1.454,0,2.36c1.227,0,2.281,0,3.16,0
		c0.881,0,1.721,0,2.521,0c0.799,0,1.633-0.006,2.5-0.02c0.865-0.013,1.912-0.033,3.139-0.06l0.201,0.28
		c-0.055,0.347-0.088,0.64-0.102,0.88c-0.014,0.24-0.025,0.474-0.039,0.7c-0.014,0.227-0.027,0.454-0.039,0.68
		c-0.016,0.227-0.021,0.5-0.021,0.82l-0.24,0.28c-1.174-0.026-2.152-0.046-2.939-0.06c-0.787-0.013-1.553-0.026-2.299-0.04
		c-0.748-0.013-1.568-0.02-2.461-0.02c-0.895,0-2.02,0-3.381,0c-0.025,1.174-0.039,2.147-0.039,2.92c0,0.774,0,1.494,0,2.16
		s0.006,1.34,0.02,2.02c0.014,0.68,0.02,1.5,0.02,2.46c1.521,0,2.781,0,3.781,0s1.926-0.006,2.779-0.02
		c0.854-0.013,1.727-0.033,2.621-0.06c0.893-0.026,1.979-0.066,3.26-0.12L259.284,260.598z"/>
	<path style="fill:#99CCEE;stroke:#99CCEE;stroke-miterlimit:10;" d="M273.963,247.877c0.719,0.32,1.479,0.68,2.279,1.08
		s1.533,0.907,2.199,1.52c0.666,0.614,1.221,1.36,1.66,2.24c0.441,0.88,0.66,1.96,0.66,3.24c0,1.12-0.207,2.194-0.619,3.22
		c-0.414,1.027-1.047,1.934-1.9,2.72c-0.854,0.787-1.928,1.414-3.221,1.88s-2.807,0.7-4.539,0.7c-1.066,0-2.033-0.067-2.9-0.2
		c-0.867-0.134-1.633-0.3-2.301-0.5c-0.666-0.2-1.227-0.393-1.68-0.58c-0.453-0.186-0.799-0.346-1.039-0.48l-0.16-0.28
		c0.025-0.346,0.061-0.66,0.1-0.94c0.041-0.28,0.066-0.56,0.08-0.84c0.014-0.28,0.033-0.573,0.061-0.88
		c0.025-0.306,0.053-0.646,0.08-1.02l0.4-0.16c0.238,0.16,0.572,0.374,1,0.64c0.426,0.267,0.926,0.527,1.5,0.78
		c0.572,0.253,1.238,0.474,2,0.66c0.76,0.187,1.605,0.28,2.539,0.28c1.039,0,1.926-0.12,2.66-0.36c0.732-0.24,1.332-0.573,1.801-1
		c0.465-0.426,0.812-0.906,1.039-1.44c0.227-0.533,0.34-1.106,0.34-1.72c0-0.693-0.133-1.293-0.4-1.8
		c-0.266-0.506-0.627-0.946-1.08-1.32c-0.453-0.373-0.979-0.7-1.58-0.98c-0.6-0.28-1.219-0.54-1.859-0.78l-2-0.88
		c-0.721-0.32-1.467-0.686-2.24-1.1c-0.773-0.413-1.486-0.92-2.141-1.52c-0.652-0.6-1.193-1.327-1.619-2.18
		c-0.428-0.853-0.641-1.893-0.641-3.12c0-0.746,0.102-1.48,0.301-2.2c0.199-0.72,0.514-1.386,0.939-2
		c0.934-1.333,2.16-2.253,3.68-2.76c1.521-0.506,3.094-0.76,4.721-0.76c1.572,0,2.9,0.127,3.98,0.38
		c1.08,0.254,2.152,0.554,3.219,0.9l0.201,0.32c-0.055,0.374-0.094,0.7-0.121,0.98c-0.025,0.28-0.047,0.547-0.059,0.8
		c-0.014,0.254-0.035,0.52-0.061,0.8c-0.027,0.28-0.055,0.594-0.08,0.94l-0.32,0.16c-0.854-0.426-1.793-0.84-2.82-1.24
		c-1.025-0.4-2.287-0.6-3.779-0.6c-1.68,0-3,0.354-3.961,1.06c-0.959,0.707-1.439,1.66-1.439,2.86c0,0.454,0.066,0.847,0.201,1.18
		c0.133,0.333,0.299,0.626,0.5,0.88c0.199,0.254,0.42,0.467,0.658,0.64c0.24,0.173,0.467,0.327,0.682,0.46
		c0.133,0.08,0.252,0.154,0.359,0.22c0.105,0.067,0.26,0.147,0.459,0.24c0.201,0.094,0.475,0.213,0.82,0.36
		c0.348,0.147,0.826,0.354,1.441,0.62L273.963,247.877z"/>
	<path style="fill:#99CCEE;stroke:#99CCEE;stroke-miterlimit:10;" d="M301.243,239.078c-0.854-0.026-1.555-0.046-2.1-0.06
		c-0.547-0.013-1.068-0.02-1.561-0.02c-0.494,0-1.02,0-1.58,0s-1.268,0-2.119,0c-0.027,1.014-0.047,1.84-0.061,2.48
		s-0.02,1.234-0.02,1.78c0,0.547,0,1.12,0,1.72s0,1.34,0,2.22c0,2.507,0.006,4.66,0.02,6.46c0.014,1.8,0.033,3.334,0.061,4.6
		c0.025,1.267,0.059,2.327,0.1,3.18c0.039,0.854,0.072,1.574,0.1,2.16l-0.24,0.28c-0.561,0-1.014,0-1.359,0
		c-0.348,0-0.668,0.006-0.961,0.02c-0.293,0.013-0.605,0.026-0.939,0.04c-0.334,0.013-0.779,0.033-1.34,0.06l-0.199-0.28
		c0.105-2.826,0.172-5.626,0.199-8.4c0.025-2.773,0.039-5.573,0.039-8.4c0-2.026-0.014-3.64-0.039-4.84
		c-0.027-1.2-0.055-2.227-0.08-3.08c-0.881,0-1.594,0.007-2.141,0.02c-0.547,0.014-1.066,0.027-1.559,0.04
		c-0.494,0.014-1.021,0.027-1.58,0.04c-0.561,0.014-1.281,0.034-2.16,0.06l-0.24-0.28c0.027-0.346,0.047-0.633,0.061-0.86
		s0.02-0.433,0.02-0.62c0-0.186,0.006-0.393,0.02-0.62c0.014-0.226,0.033-0.513,0.061-0.86l0.199-0.28c0.721,0,1.527,0,2.42,0
		s1.812,0,2.76,0s1.867-0.006,2.76-0.02c0.895-0.013,1.701-0.02,2.42-0.02c1.547,0,3.088-0.006,4.621-0.02
		c1.533-0.013,3.072-0.033,4.619-0.06l0.201,0.28c-0.027,0.347-0.055,0.647-0.08,0.9c-0.027,0.254-0.047,0.487-0.061,0.7
		c-0.014,0.214-0.02,0.427-0.02,0.64s0,0.467,0,0.76L301.243,239.078z"/>
	<path style="fill:#99CCEE;stroke:#99CCEE;stroke-miterlimit:10;" d="M314.842,247.877c0.721,0.32,1.48,0.68,2.279,1.08
		c0.801,0.4,1.533,0.907,2.201,1.52c0.666,0.614,1.221,1.36,1.66,2.24c0.439,0.88,0.66,1.96,0.66,3.24
		c0,1.12-0.207,2.194-0.621,3.22c-0.414,1.027-1.047,1.934-1.9,2.72c-0.854,0.787-1.926,1.414-3.219,1.88
		c-1.295,0.466-2.807,0.7-4.541,0.7c-1.066,0-2.033-0.067-2.898-0.2c-0.867-0.134-1.635-0.3-2.301-0.5
		c-0.666-0.2-1.227-0.393-1.68-0.58c-0.455-0.186-0.801-0.346-1.041-0.48l-0.16-0.28c0.027-0.346,0.061-0.66,0.102-0.94
		c0.039-0.28,0.066-0.56,0.08-0.84c0.012-0.28,0.033-0.573,0.059-0.88c0.027-0.306,0.053-0.646,0.08-1.02l0.4-0.16
		c0.24,0.16,0.572,0.374,1,0.64c0.426,0.267,0.926,0.527,1.5,0.78c0.572,0.253,1.24,0.474,2,0.66c0.76,0.187,1.605,0.28,2.541,0.28
		c1.039,0,1.926-0.12,2.658-0.36c0.734-0.24,1.334-0.573,1.801-1c0.467-0.426,0.812-0.906,1.041-1.44
		c0.225-0.533,0.34-1.106,0.34-1.72c0-0.693-0.135-1.293-0.4-1.8c-0.268-0.506-0.627-0.946-1.08-1.32
		c-0.453-0.373-0.98-0.7-1.58-0.98c-0.6-0.28-1.221-0.54-1.859-0.78l-2-0.88c-0.721-0.32-1.467-0.686-2.24-1.1
		c-0.773-0.413-1.488-0.92-2.141-1.52c-0.654-0.6-1.193-1.327-1.619-2.18c-0.428-0.853-0.641-1.893-0.641-3.12
		c0-0.746,0.1-1.48,0.299-2.2c0.201-0.72,0.514-1.386,0.941-2c0.934-1.333,2.16-2.253,3.68-2.76c1.52-0.506,3.094-0.76,4.721-0.76
		c1.572,0,2.898,0.127,3.979,0.38c1.08,0.254,2.154,0.554,3.221,0.9l0.199,0.32c-0.053,0.374-0.094,0.7-0.119,0.98
		c-0.027,0.28-0.047,0.547-0.061,0.8c-0.014,0.254-0.033,0.52-0.061,0.8c-0.025,0.28-0.053,0.594-0.078,0.94l-0.32,0.16
		c-0.854-0.426-1.795-0.84-2.82-1.24c-1.027-0.4-2.287-0.6-3.781-0.6c-1.68,0-3,0.354-3.959,1.06
		c-0.961,0.707-1.439,1.66-1.439,2.86c0,0.454,0.066,0.847,0.199,1.18s0.301,0.626,0.5,0.88c0.199,0.254,0.42,0.467,0.66,0.64
		s0.467,0.327,0.68,0.46c0.133,0.08,0.254,0.154,0.359,0.22c0.107,0.067,0.262,0.147,0.461,0.24c0.199,0.094,0.473,0.213,0.82,0.36
		c0.346,0.147,0.826,0.354,1.439,0.62L314.842,247.877z"/>
</g>
<g>
	<path style="fill:#99CCEE;stroke:#99CCEE;stroke-width:3;stroke-miterlimit:10;" d="M178.803,311.79c-0.339,0-0.61,0-0.812,0
		s-0.388,0.004-0.557,0.013c-0.169,0.008-0.351,0.016-0.545,0.024c-0.194,0.008-0.444,0.02-0.75,0.035l-0.144-0.168
		c0.032-1.168,0.056-2.336,0.072-3.504s0.024-2.336,0.024-3.504c0-1.344-0.004-2.492-0.012-3.443
		c-0.008-0.952-0.024-1.789-0.048-2.509c-0.024-0.72-0.052-1.368-0.084-1.944c-0.032-0.576-0.064-1.168-0.096-1.776l0.144-0.168h0.6
		c0.224,0,0.58-0.004,1.068-0.012c0.488-0.008,0.94-0.012,1.356-0.012l1.464-0.024c0.672,0,1.32,0.016,1.944,0.048
		s1.231,0.152,1.824,0.36c0.928,0.32,1.664,0.82,2.208,1.5c0.544,0.68,0.816,1.596,0.816,2.748c0,0.48-0.068,0.957-0.204,1.427
		c-0.136,0.473-0.369,0.917-0.696,1.332c-0.328,0.417-0.752,0.793-1.272,1.129c-0.52,0.336-1.164,0.607-1.932,0.816
		c0.096,0.144,0.272,0.396,0.528,0.756c0.255,0.359,0.528,0.748,0.816,1.164s0.56,0.812,0.816,1.188
		c0.256,0.376,0.44,0.645,0.552,0.804c0.192,0.272,0.364,0.513,0.516,0.72c0.152,0.209,0.316,0.437,0.492,0.685
		c0.176,0.248,0.388,0.536,0.636,0.864s0.556,0.74,0.924,1.236l-0.096,0.239c-0.24,0-0.484,0-0.732,0s-0.492,0.008-0.732,0.024
		c-0.256,0.016-0.508,0.027-0.756,0.035c-0.249,0.008-0.5,0.028-0.756,0.061l-0.168-0.12l-0.288-0.504
		c-0.352-0.608-0.724-1.204-1.116-1.788c-0.392-0.584-0.779-1.172-1.161-1.764c-0.366-0.544-0.657-0.98-0.872-1.309
		s-0.394-0.6-0.537-0.815c-0.143-0.216-0.267-0.399-0.37-0.552c-0.103-0.152-0.226-0.324-0.37-0.517
		c-0.191,0-0.346,0.005-0.466,0.013c-0.119,0.008-0.238,0.012-0.357,0.012c-0.12,0-0.247,0-0.382,0s-0.306,0-0.513,0
		c0,0.336,0,0.796,0,1.38s0.008,1.212,0.024,1.884c0.016,0.672,0.036,1.344,0.06,2.016c0.024,0.672,0.052,1.257,0.084,1.752
		L178.803,311.79z M178.731,302.622c0.446,0,0.904,0,1.375,0c0.47,0,0.92-0.027,1.35-0.083s0.837-0.147,1.219-0.274
		c0.383-0.128,0.717-0.319,1.004-0.574c0.303-0.256,0.53-0.558,0.681-0.908s0.227-0.717,0.227-1.1c0-0.255-0.032-0.526-0.096-0.812
		c-0.063-0.287-0.183-0.566-0.358-0.837c-0.191-0.287-0.414-0.514-0.669-0.681c-0.255-0.167-0.546-0.294-0.873-0.382
		s-0.681-0.14-1.063-0.155c-0.382-0.016-0.796-0.024-1.243-0.024c-0.159,0-0.355,0-0.586,0s-0.554,0.008-0.968,0.024
		c0,0.701-0.004,1.271-0.012,1.709c-0.008,0.438-0.012,0.853-0.012,1.243s0.004,0.797,0.012,1.219
		C178.727,301.407,178.731,301.954,178.731,302.622z"/>
	<path style="fill:#99CCEE;stroke:#99CCEE;stroke-width:3;stroke-miterlimit:10;" d="M201.291,309.823
		c-0.016,0.207-0.028,0.379-0.036,0.516c-0.008,0.136-0.016,0.264-0.024,0.384c-0.008,0.12-0.016,0.248-0.024,0.384
		c-0.008,0.137-0.02,0.309-0.036,0.516l-0.168,0.168c-0.784,0-1.468,0-2.052,0c-0.584,0-1.12,0.004-1.608,0.013
		c-0.488,0.008-0.948,0.012-1.38,0.012c-0.432,0-0.888,0.004-1.368,0.013c-0.48,0.008-1.008,0.016-1.584,0.023
		c-0.576,0.008-1.24,0.012-1.992,0.012l-0.12-0.168c0.016-0.48,0.032-0.936,0.048-1.367c0.016-0.433,0.032-0.928,0.048-1.488
		c0.016-0.561,0.028-1.213,0.036-1.957c0.008-0.743,0.012-1.668,0.012-2.771c0-1.008,0-1.92,0-2.736c0-0.815-0.008-1.58-0.024-2.292
		c-0.016-0.712-0.032-1.396-0.048-2.052c-0.016-0.656-0.048-1.328-0.096-2.016l0.144-0.168c1.184,0,2.168-0.004,2.952-0.012
		c0.784-0.008,1.52-0.012,2.208-0.012c0.688,0,1.404-0.004,2.148-0.012c0.744-0.008,1.668-0.02,2.772-0.036l0.144,0.168
		c-0.016,0.176-0.032,0.333-0.048,0.468c-0.016,0.136-0.032,0.272-0.048,0.408c-0.016,0.136-0.028,0.284-0.036,0.444
		c-0.008,0.16-0.02,0.344-0.036,0.552l-0.144,0.168c-0.768-0.016-1.432-0.032-1.992-0.048c-0.56-0.016-1.096-0.028-1.608-0.036
		c-0.512-0.008-1.044-0.016-1.596-0.024c-0.552-0.008-1.212-0.012-1.98-0.012c-0.016,0.561-0.028,1.036-0.036,1.428
		c-0.008,0.392-0.016,0.768-0.024,1.128c-0.008,0.36-0.012,0.741-0.012,1.14s0,0.872,0,1.416c0.736,0,1.368,0,1.896,0
		s1.032,0,1.512,0c0.48,0,0.98-0.004,1.5-0.013c0.52-0.008,1.148-0.02,1.884-0.035l0.12,0.168c-0.032,0.208-0.052,0.384-0.06,0.527
		c-0.008,0.145-0.016,0.285-0.024,0.42c-0.008,0.137-0.016,0.273-0.024,0.408c-0.008,0.137-0.012,0.301-0.012,0.492l-0.144,0.168
		c-0.704-0.016-1.292-0.027-1.764-0.035c-0.472-0.008-0.932-0.017-1.38-0.025c-0.448-0.008-0.94-0.012-1.476-0.012s-1.212,0-2.028,0
		c-0.016,0.705-0.024,1.289-0.024,1.752c0,0.465,0,0.896,0,1.297s0.003,0.804,0.012,1.211c0.008,0.408,0.012,0.9,0.012,1.477
		c0.912,0,1.668,0,2.268,0s1.156-0.004,1.668-0.012c0.512-0.008,1.036-0.02,1.572-0.036c0.536-0.016,1.188-0.04,1.956-0.072
		L201.291,309.823z"/>
	<path style="fill:#99CCEE;stroke:#99CCEE;stroke-width:3;stroke-miterlimit:10;" d="M216.938,303.606
		c-0.048,0.96-0.081,1.896-0.096,2.809c-0.016,0.912-0.024,1.728-0.024,2.447c0,0.496,0.004,0.889,0.012,1.176
		c0.008,0.289,0.02,0.609,0.036,0.961l-0.144,0.168c-0.848,0.336-1.68,0.584-2.496,0.744c-0.816,0.159-1.68,0.239-2.592,0.239
		c-0.592,0-1.192-0.04-1.8-0.12c-0.608-0.08-1.2-0.216-1.776-0.408c-0.576-0.191-1.132-0.447-1.668-0.768
		c-0.537-0.32-1.028-0.72-1.476-1.2c-0.592-0.64-1.092-1.472-1.5-2.495c-0.408-1.024-0.612-2.232-0.612-3.625
		c0-1.407,0.212-2.655,0.636-3.744c0.424-1.088,0.972-2.008,1.644-2.76c0.543-0.608,1.116-1.08,1.716-1.416
		c0.6-0.336,1.18-0.588,1.74-0.756c0.56-0.168,1.083-0.272,1.572-0.312c0.488-0.04,0.892-0.06,1.212-0.06
		c0.64,0,1.224,0.041,1.752,0.12c0.528,0.081,0.996,0.172,1.404,0.276c0.408,0.104,0.756,0.216,1.044,0.336
		c0.288,0.12,0.52,0.22,0.696,0.3l0.12,0.168c-0.032,0.208-0.06,0.396-0.084,0.564s-0.044,0.336-0.06,0.504
		c-0.016,0.168-0.036,0.352-0.06,0.552s-0.044,0.436-0.06,0.708l-0.192,0.048c-0.192-0.128-0.424-0.276-0.696-0.444
		c-0.272-0.168-0.592-0.324-0.96-0.468c-0.369-0.144-0.78-0.268-1.236-0.372c-0.456-0.104-0.964-0.156-1.524-0.156
		c-0.224,0-0.508,0.016-0.852,0.048c-0.344,0.032-0.72,0.116-1.128,0.252c-0.408,0.136-0.828,0.348-1.26,0.636
		c-0.432,0.288-0.833,0.68-1.2,1.176c-0.304,0.417-0.544,0.844-0.72,1.284c-0.176,0.44-0.308,0.876-0.396,1.309
		c-0.088,0.432-0.144,0.84-0.168,1.223c-0.024,0.385-0.036,0.713-0.036,0.984c0,0.992,0.128,1.889,0.384,2.688
		s0.632,1.483,1.128,2.052s1.116,1.008,1.86,1.32c0.744,0.312,1.596,0.468,2.556,0.468c0.608,0,1.104-0.048,1.488-0.144
		c0.384-0.096,0.711-0.184,0.984-0.265l0.024-1.8c0-0.928-0.016-1.744-0.048-2.447c-0.032-0.705-0.064-1.281-0.096-1.729
		l0.144-0.168c0.32,0,0.588,0,0.804,0c0.216,0,0.416,0,0.6,0s0.372-0.004,0.564-0.012c0.192-0.008,0.432-0.021,0.72-0.037
		L216.938,303.606z"/>
	<path style="fill:#99CCEE;stroke:#99CCEE;stroke-width:3;stroke-miterlimit:10;" d="M222.842,294.942
		c-0.016,0.4-0.031,0.828-0.048,1.284s-0.028,0.984-0.036,1.584s-0.016,1.288-0.023,2.064c-0.008,0.777-0.012,1.676-0.012,2.701
		c0,1.151,0.004,2.156,0.012,3.012s0.02,1.628,0.035,2.315c0.016,0.688,0.037,1.324,0.061,1.908
		c0.023,0.585,0.052,1.188,0.084,1.812l-0.145,0.168c-0.27,0-0.496,0.004-0.678,0.013c-0.182,0.008-0.369,0.012-0.559,0.012
		c-0.19,0-0.393,0.004-0.607,0.013c-0.214,0.008-0.479,0.02-0.797,0.035l-0.143-0.168c0.016-0.367,0.027-0.732,0.036-1.092
		c0.008-0.359,0.016-0.764,0.024-1.212c0.008-0.448,0.016-0.956,0.024-1.524c0.008-0.567,0.012-1.236,0.012-2.004
		c0-1.824-0.008-3.632-0.024-5.424c-0.016-1.792-0.064-3.592-0.144-5.4l0.119-0.192c0.253,0,0.48,0,0.678,0s0.393-0.004,0.583-0.012
		c0.19-0.008,0.393-0.016,0.607-0.024c0.214-0.008,0.472-0.02,0.774-0.036L222.842,294.942z"/>
	<path style="fill:#99CCEE;stroke:#99CCEE;stroke-width:3;stroke-miterlimit:10;" d="M233.643,312.15
		c-1.248,0-2.352-0.204-3.312-0.612c-0.959-0.408-1.771-0.991-2.436-1.752c-0.664-0.76-1.168-1.676-1.512-2.748
		c-0.344-1.071-0.516-2.271-0.516-3.6c0-1.344,0.176-2.568,0.527-3.672c0.352-1.104,0.863-2.044,1.535-2.82
		c0.672-0.776,1.492-1.38,2.461-1.812c0.967-0.432,2.076-0.648,3.324-0.648c1.184,0,2.256,0.204,3.215,0.612
		c0.961,0.408,1.777,0.992,2.449,1.752c0.672,0.76,1.188,1.692,1.547,2.796c0.361,1.104,0.541,2.353,0.541,3.744
		c0,1.44-0.184,2.704-0.553,3.792c-0.367,1.088-0.896,2-1.584,2.736s-1.512,1.292-2.471,1.668
		C235.899,311.962,234.827,312.15,233.643,312.15z M233.692,310.135c0.879,0,1.631-0.185,2.256-0.554
		c0.623-0.367,1.131-0.869,1.523-1.502s0.68-1.366,0.863-2.2c0.184-0.833,0.277-1.707,0.277-2.62c0-0.225-0.014-0.525-0.037-0.902
		c-0.023-0.376-0.072-0.789-0.145-1.238c-0.07-0.447-0.176-0.9-0.311-1.357c-0.137-0.457-0.316-0.87-0.541-1.238
		c-0.32-0.513-0.672-0.91-1.055-1.19c-0.385-0.28-0.762-0.485-1.129-0.613c-0.369-0.128-0.705-0.204-1.008-0.228
		c-0.305-0.024-0.527-0.036-0.672-0.036c-0.561,0-1.053,0.068-1.477,0.204c-0.424,0.137-0.791,0.309-1.104,0.518
		c-0.312,0.208-0.572,0.428-0.779,0.661c-0.209,0.233-0.377,0.453-0.506,0.661c-0.223,0.353-0.406,0.75-0.551,1.19
		c-0.145,0.442-0.256,0.881-0.336,1.323c-0.08,0.44-0.133,0.857-0.156,1.25s-0.037,0.726-0.037,0.998
		c0,0.289,0.014,0.625,0.037,1.01s0.072,0.785,0.145,1.201c0.072,0.418,0.172,0.834,0.299,1.251
		c0.129,0.417,0.297,0.802,0.504,1.153c0.416,0.705,0.953,1.259,1.609,1.659C232.018,309.935,232.795,310.135,233.692,310.135z"/>
	<path style="fill:#99CCEE;stroke:#99CCEE;stroke-width:3;stroke-miterlimit:10;" d="M257.907,311.622l-0.119,0.168
		c-0.354,0-0.637,0-0.854,0c-0.215,0-0.42,0.004-0.611,0.013c-0.191,0.008-0.4,0.016-0.623,0.024
		c-0.225,0.008-0.514,0.02-0.865,0.035l-0.191-0.168c-0.721-1.264-1.432-2.523-2.137-3.779c-0.703-1.256-1.416-2.517-2.135-3.78
		l-3.793-6.768l0.24,8.232c0.016,0.512,0.031,1.012,0.049,1.5c0.016,0.488,0.031,0.988,0.047,1.5
		c0.016,0.496,0.027,0.888,0.037,1.176c0.008,0.288,0.016,0.528,0.023,0.721c0.008,0.191,0.016,0.367,0.023,0.527
		s0.02,0.359,0.037,0.6l-0.145,0.168c-0.271,0-0.488,0-0.648,0s-0.316,0.004-0.467,0.013c-0.152,0.008-0.316,0.016-0.492,0.024
		c-0.178,0.008-0.408,0.02-0.697,0.035l-0.143-0.168c0.047-1.152,0.078-2.295,0.096-3.432c0.016-1.137,0.023-2.28,0.023-3.432
		c0-1.648-0.008-3.284-0.023-4.909c-0.018-1.624-0.057-3.26-0.121-4.908l0.121-0.168c0.367,0,0.672-0.004,0.912-0.012
		c0.24-0.008,0.463-0.012,0.672-0.012c0.207,0,0.428-0.004,0.66-0.012c0.23-0.008,0.516-0.02,0.852-0.036l0.24,0.168
		c0.816,1.472,1.635,2.948,2.459,4.428s1.637,2.924,2.436,4.332l2.977,5.256l-0.191-7.967c-0.033-0.944-0.057-1.708-0.072-2.292
		s-0.027-1.08-0.035-1.488c-0.01-0.408-0.025-0.771-0.049-1.092c-0.023-0.32-0.045-0.688-0.061-1.104l0.145-0.168
		c0.271,0,0.5,0,0.684,0s0.352-0.004,0.504-0.012c0.152-0.008,0.312-0.016,0.48-0.024c0.168-0.008,0.373-0.02,0.611-0.036
		l0.145,0.168c-0.031,1.472-0.057,2.948-0.072,4.428s-0.023,2.964-0.023,4.453c0,2.271,0.023,4.535,0.072,6.791L257.907,311.622z"/>
	<path style="fill:#99CCEE;stroke:#99CCEE;stroke-width:3;stroke-miterlimit:10;" d="M283.659,302.935
		c0.27,0.08,0.6,0.216,0.988,0.408c0.389,0.191,0.766,0.527,1.131,1.008c0.301,0.4,0.52,0.84,0.654,1.32
		c0.135,0.479,0.203,0.951,0.203,1.416c0,0.896-0.188,1.652-0.562,2.268c-0.377,0.616-0.779,1.092-1.211,1.428
		c-0.605,0.48-1.281,0.809-2.023,0.984s-1.498,0.264-2.264,0.264c-1.021,0-1.904-0.136-2.646-0.408
		c-0.742-0.271-1.354-0.636-1.832-1.092c-0.48-0.455-0.834-0.979-1.066-1.572c-0.232-0.592-0.348-1.207-0.348-1.848
		c0-0.735,0.113-1.352,0.336-1.848c0.225-0.496,0.492-0.9,0.805-1.213c0.312-0.311,0.627-0.547,0.947-0.707s0.576-0.279,0.77-0.36
		c-0.178-0.096-0.396-0.22-0.66-0.372s-0.516-0.359-0.756-0.624c-0.24-0.264-0.445-0.596-0.613-0.995
		c-0.168-0.4-0.252-0.881-0.252-1.441c0-0.704,0.16-1.335,0.48-1.896c0.32-0.56,0.736-1.023,1.248-1.392
		c0.4-0.272,0.908-0.504,1.523-0.696c0.617-0.192,1.373-0.288,2.268-0.288c0.912,0,1.701,0.12,2.365,0.36
		c0.664,0.24,1.215,0.552,1.656,0.936c0.439,0.384,0.764,0.828,0.971,1.332c0.209,0.504,0.312,1.02,0.312,1.548
		c0,0.592-0.096,1.091-0.287,1.5c-0.193,0.408-0.416,0.744-0.672,1.008c-0.258,0.265-0.525,0.473-0.805,0.625
		S283.819,302.854,283.659,302.935z M283.995,307.062c0-0.416-0.072-0.812-0.217-1.188c-0.143-0.375-0.355-0.703-0.635-0.983
		c-0.281-0.28-0.625-0.5-1.033-0.66c-0.406-0.159-0.875-0.239-1.402-0.239c-1.025,0-1.846,0.283-2.461,0.852
		s-0.924,1.316-0.924,2.244c0,0.912,0.291,1.652,0.877,2.22c0.582,0.567,1.41,0.853,2.482,0.853c0.545,0,1.021-0.08,1.428-0.24
		c0.408-0.16,0.752-0.381,1.033-0.66c0.279-0.279,0.492-0.607,0.635-0.984C283.922,307.899,283.995,307.495,283.995,307.062z
		 M283.61,299.431c-0.031-0.256-0.111-0.52-0.238-0.792c-0.129-0.272-0.312-0.516-0.553-0.732c-0.24-0.216-0.537-0.392-0.889-0.528
		c-0.352-0.136-0.76-0.204-1.223-0.204c-0.977,0-1.717,0.252-2.221,0.756s-0.756,1.1-0.756,1.788c0,0.72,0.264,1.308,0.791,1.764
		c0.529,0.456,1.256,0.685,2.186,0.685c0.623,0,1.127-0.1,1.512-0.301c0.383-0.199,0.684-0.443,0.9-0.731
		c0.215-0.288,0.355-0.589,0.42-0.9C283.602,299.922,283.627,299.655,283.61,299.431z"/>
</g>
</svg>
